<svg width="477" height="66" viewBox="0 0 477 66" fill="none" xmlns="http://www.w3.org/2000/svg">
<path d="M185.354 46V45.16L189.034 44.56V15.44L185.354 14.88V14H197.114V14.88L193.434 15.44V45.04H205.394L208.674 36.24H209.754V46H185.354ZM222.826 46.4C220.906 46.4 219.159 45.96 217.586 45.08C216.013 44.1733 214.759 42.9067 213.826 41.28C212.919 39.6267 212.466 37.7467 212.466 35.64C212.466 33.5333 212.919 31.6667 213.826 30.04C214.759 28.4133 216.013 27.16 217.586 26.28C219.159 25.3733 220.906 24.92 222.826 24.92C224.746 24.92 226.493 25.3733 228.066 26.28C229.639 27.16 230.879 28.4133 231.786 30.04C232.719 31.6667 233.186 33.5333 233.186 35.64C233.186 37.7467 232.719 39.6267 231.786 41.28C230.879 42.9067 229.639 44.1733 228.066 45.08C226.493 45.96 224.746 46.4 222.826 46.4ZM222.826 45.52C224.799 45.52 226.279 44.8 227.266 43.36C228.279 41.92 228.786 40.0133 228.786 37.64V33.64C228.786 31.2667 228.279 29.3733 227.266 27.96C226.279 26.52 224.799 25.8 222.826 25.8C220.853 25.8 219.359 26.52 218.346 27.96C217.359 29.3733 216.866 31.2667 216.866 33.64V37.64C216.866 40.0133 217.359 41.92 218.346 43.36C219.359 44.8 220.853 45.52 222.826 45.52ZM256.487 23.4C256.487 24.44 256.1 25.3333 255.327 26.08C254.553 26.8267 253.327 27.3067 251.647 27.52C252.34 28.5333 252.687 29.92 252.687 31.68C252.687 33.76 251.94 35.4 250.447 36.6C248.98 37.8 247.113 38.4 244.847 38.4C243.913 38.4 243.06 38.32 242.287 38.16C240.58 38.2667 239.727 38.9333 239.727 40.16C239.727 40.8533 240.007 41.36 240.567 41.68C241.153 42 242.073 42.16 243.327 42.16H247.807C249.967 42.16 251.567 42.6 252.607 43.48C253.673 44.36 254.207 45.8667 254.207 48C254.207 49.4933 253.82 50.8667 253.047 52.12C252.3 53.3733 251.207 54.36 249.767 55.08C248.327 55.8267 246.607 56.2 244.607 56.2C241.593 56.2 239.367 55.7467 237.927 54.84C236.513 53.9333 235.807 52.7333 235.807 51.24C235.807 50.3333 236.153 49.5333 236.847 48.84C237.54 48.1467 238.487 47.8 239.687 47.8C239.927 47.8 240.42 47.8533 241.167 47.96C240.34 48.84 239.927 49.88 239.927 51.08C239.927 52.2267 240.327 53.2267 241.127 54.08C241.927 54.9333 243.233 55.36 245.047 55.36C246.62 55.36 248.02 55.0533 249.247 54.44C250.5 53.8533 251.46 53.08 252.127 52.12C252.793 51.16 253.127 50.1733 253.127 49.16C253.127 48.04 252.767 47.2267 252.047 46.72C251.327 46.24 250.047 46 248.207 46H243.327C241.46 46 240.047 45.64 239.087 44.92C238.153 44.1733 237.687 43.08 237.687 41.64C237.687 40.68 237.953 39.84 238.487 39.12C239.047 38.3733 239.753 37.8933 240.607 37.68C238.287 36.6933 237.127 34.6933 237.127 31.68C237.127 29.5733 237.86 27.92 239.327 26.72C240.793 25.52 242.633 24.92 244.847 24.92C247.647 24.92 249.673 25.5067 250.927 26.68C251.673 26.5467 252.233 26.3067 252.607 25.96C252.98 25.5867 253.167 25.1733 253.167 24.72C253.167 24.2933 253.047 23.9733 252.807 23.76C252.567 23.52 252.287 23.4 251.967 23.4C251.967 22.8133 252.18 22.3067 252.607 21.88C253.06 21.4267 253.593 21.2 254.207 21.2C254.873 21.2 255.42 21.4 255.847 21.8C256.273 22.2 256.487 22.7333 256.487 23.4ZM248.927 30.68C248.927 29.0533 248.58 27.8 247.887 26.92C247.22 26.04 246.207 25.6 244.847 25.6C242.207 25.6 240.887 27.2933 240.887 30.68V32.64C240.887 34.2133 241.207 35.4533 241.847 36.36C242.513 37.2667 243.513 37.72 244.847 37.72C246.207 37.72 247.22 37.2667 247.887 36.36C248.58 35.4533 248.927 34.2133 248.927 32.64V30.68ZM261.653 20.64C260.906 20.64 260.266 20.3867 259.733 19.88C259.2 19.3467 258.933 18.7067 258.933 17.96C258.933 17.2133 259.186 16.5867 259.693 16.08C260.226 15.5733 260.88 15.32 261.653 15.32C262.373 15.32 262.986 15.5733 263.493 16.08C264 16.5867 264.253 17.2133 264.253 17.96C264.253 18.7067 264 19.3467 263.493 19.88C262.986 20.3867 262.373 20.64 261.653 20.64ZM257.413 46V45.2L260.213 44.8V26.52L257.413 26.12V25.32H264.213V44.8L267.013 45.2V46H257.413ZM268.935 45.2L271.735 44.8V26.48L268.935 26.08V25.28H275.735V29.6C276.722 28.16 277.882 27.0267 279.215 26.2C280.549 25.3467 281.989 24.92 283.535 24.92C285.455 24.92 286.962 25.4 288.055 26.36C289.175 27.32 289.735 28.7467 289.735 30.64V44.8L292.535 45.2V46H283.335V45.2L285.735 44.8V30.72C285.735 29.3333 285.455 28.2667 284.895 27.52C284.335 26.7467 283.469 26.36 282.295 26.36C281.069 26.36 279.882 26.8133 278.735 27.72C277.615 28.6 276.615 29.6933 275.735 31V44.8L278.135 45.2V46H268.935V45.2Z" fill="#414141"/>
<rect x="305" y="33" width="43" height="2" fill="#484848"/>
</svg>
