<svg width="411" height="52" viewBox="0 0 411 52" fill="none" xmlns="http://www.w3.org/2000/svg">
<path d="M0.4 50V48.74L5.92 47.84V4.16L0.4 3.32V2H18.04V3.32L12.52 4.16V48.56H30.46L35.38 35.36H37V50H0.4ZM50.0083 50.6C47.4483 50.6 45.3483 49.94 43.7083 48.62C42.0683 47.26 41.2483 45.26 41.2483 42.62C41.2483 38.86 42.8283 36.2 45.9883 34.64C49.1483 33.04 52.8083 32.24 56.9683 32.24H60.9883V27.62C60.9883 25.54 60.7483 23.94 60.2683 22.82C59.8283 21.66 59.1283 20.86 58.1683 20.42C57.2083 19.94 55.9083 19.7 54.2683 19.7C52.3883 19.7 50.9883 20.08 50.0683 20.84C49.1483 21.56 48.6883 22.54 48.6883 23.78C48.6883 24.94 49.2483 25.7 50.3683 26.06C50.3683 27.06 49.9883 27.94 49.2283 28.7C48.4683 29.46 47.5683 29.84 46.5283 29.84C45.4083 29.84 44.5083 29.54 43.8283 28.94C43.1483 28.3 42.8083 27.34 42.8083 26.06C42.8083 23.74 43.9683 21.88 46.2883 20.48C48.6083 19.08 51.5083 18.38 54.9883 18.38C62.9883 18.38 66.9883 21.86 66.9883 28.82V45.98C66.9883 46.86 67.1683 47.54 67.5283 48.02C67.9283 48.46 68.4883 48.68 69.2083 48.68C69.8883 48.68 70.4283 48.46 70.8283 48.02C71.2283 47.54 71.4283 46.9 71.4283 46.1H72.6883C72.6883 47.5 72.2283 48.6 71.3083 49.4C70.4283 50.2 69.1883 50.6 67.5883 50.6C65.7483 50.6 64.1883 50.08 62.9083 49.04C61.6683 47.96 61.0283 46.3 60.9883 44.06C60.0283 46.1 58.5483 47.7 56.5483 48.86C54.5883 50.02 52.4083 50.6 50.0083 50.6ZM53.3083 47.96C54.3883 47.96 55.4883 47.64 56.6083 47C57.7683 46.36 58.7483 45.44 59.5483 44.24C60.3483 43 60.8283 41.52 60.9883 39.8V33.56H56.9683C53.6883 33.56 51.2283 34.3 49.5883 35.78C47.9883 37.22 47.1883 39.26 47.1883 41.9C47.1883 44.1 47.7083 45.66 48.7483 46.58C49.7883 47.5 51.3083 47.96 53.3083 47.96ZM86.5713 50.6C83.9313 50.6 81.8113 49.94 80.2113 48.62C78.6513 47.3 77.8713 45.2 77.8713 42.32V20.72L73.6113 20.12V18.92H77.8713V13.94L83.8713 12.44V18.92H91.6713V20.12L83.8713 20.72V42.2C83.8713 46.44 85.3913 48.56 88.4313 48.56C89.0713 48.56 89.6713 48.46 90.2313 48.26C90.8313 48.06 91.2913 47.86 91.6113 47.66C91.9713 47.46 92.1913 47.32 92.2713 47.24L93.0513 48.2C91.2513 49.8 89.0913 50.6 86.5713 50.6ZM109.936 50.6C106.976 50.6 104.296 49.94 101.896 48.62C99.4956 47.26 97.5956 45.36 96.1956 42.92C94.7956 40.48 94.0956 37.66 94.0956 34.46C94.0956 31.26 94.7756 28.46 96.1356 26.06C97.5356 23.62 99.3956 21.74 101.716 20.42C104.076 19.06 106.696 18.38 109.576 18.38C112.096 18.38 114.356 18.94 116.356 20.06C118.356 21.18 119.916 22.74 121.036 24.74C122.156 26.7 122.736 28.96 122.776 31.52H100.696V37.46C100.696 40.98 101.476 43.84 103.036 46.04C104.636 48.2 106.936 49.28 109.936 49.28C112.696 49.28 115.136 48.5 117.256 46.94C119.376 45.38 120.676 43.36 121.156 40.88H122.536C121.976 43.84 120.556 46.2 118.276 47.96C115.996 49.72 113.216 50.6 109.936 50.6ZM116.176 30.02C116.176 26.54 115.636 23.96 114.556 22.28C113.476 20.56 111.796 19.7 109.516 19.7C106.836 19.7 104.756 20.64 103.276 22.52C101.796 24.4 100.956 26.9 100.756 30.02H116.176ZM139.548 50.6C136.268 50.6 133.528 49.9 131.328 48.5C129.128 47.1 128.028 45.28 128.028 43.04C128.028 41.88 128.328 40.98 128.928 40.34C129.568 39.66 130.408 39.32 131.448 39.32C132.248 39.32 132.928 39.52 133.488 39.92C134.048 40.32 134.448 40.88 134.688 41.6C133.808 42.56 133.368 43.58 133.368 44.66C133.368 45.9 133.928 46.98 135.048 47.9C136.168 48.82 137.668 49.28 139.548 49.28C142.068 49.28 144.128 48.72 145.728 47.6C147.328 46.44 148.128 44.9 148.128 42.98C148.128 41.86 147.788 41.02 147.108 40.46C146.428 39.9 145.108 39.26 143.148 38.54L134.088 35.24C130.528 33.96 128.748 31.58 128.748 28.1C128.748 25.26 129.728 22.94 131.688 21.14C133.648 19.3 136.348 18.38 139.788 18.38C142.628 18.38 145.048 19.04 147.048 20.36C149.088 21.64 150.108 23.48 150.108 25.88C150.108 26.84 149.848 27.62 149.328 28.22C148.808 28.78 148.128 29.06 147.288 29.06C146.448 29.06 145.748 28.84 145.188 28.4C144.668 27.92 144.408 27.28 144.408 26.48C144.928 26.08 145.288 25.66 145.488 25.22C145.688 24.74 145.788 24.18 145.788 23.54C145.788 22.42 145.288 21.5 144.288 20.78C143.328 20.06 141.828 19.7 139.788 19.7C138.028 19.7 136.508 19.98 135.228 20.54C133.988 21.06 133.048 21.76 132.408 22.64C131.768 23.52 131.448 24.42 131.448 25.34C131.448 26.3 131.788 27.06 132.468 27.62C133.188 28.18 134.488 28.8 136.368 29.48L144.768 32.48C146.728 33.2 148.208 34.2 149.208 35.48C150.208 36.76 150.708 38.42 150.708 40.46C150.708 43.38 149.788 45.8 147.948 47.72C146.108 49.64 143.308 50.6 139.548 50.6ZM167.724 50.6C165.084 50.6 162.964 49.94 161.364 48.62C159.804 47.3 159.024 45.2 159.024 42.32V20.72L154.764 20.12V18.92H159.024V13.94L165.024 12.44V18.92H172.824V20.12L165.024 20.72V42.2C165.024 46.44 166.544 48.56 169.584 48.56C170.224 48.56 170.824 48.46 171.384 48.26C171.984 48.06 172.444 47.86 172.764 47.66C173.124 47.46 173.344 47.32 173.424 47.24L174.204 48.2C172.404 49.8 170.244 50.6 167.724 50.6ZM187.16 50V48.74L193.04 46.34L210.38 0.799997H211.34L227.72 47.84L233.24 48.74V50H215.6V48.74L220.52 47.96L215.42 33.74H199.46L194.6 46.34L200 48.74V50H187.16ZM199.94 32.48H215L207.8 11.36L199.94 32.48ZM233.585 48.8L237.785 48.2V20.72L233.585 20.12V18.92H243.785V23.54C246.305 20.1 249.145 18.38 252.305 18.38C253.825 18.38 255.165 18.78 256.325 19.58C257.485 20.34 258.065 21.44 258.065 22.88C258.065 23.92 257.725 24.8 257.045 25.52C256.365 26.2 255.465 26.54 254.345 26.54C253.065 26.54 252.025 26.04 251.225 25.04C251.665 24.48 251.885 23.88 251.885 23.24C251.885 22.56 251.645 22.02 251.165 21.62C250.725 21.18 250.125 20.96 249.365 20.96C248.525 20.96 247.665 21.36 246.785 22.16C245.905 22.92 244.905 24.12 243.785 25.76V48.2L248.585 48.8V50H233.585V48.8ZM260.128 48.8L264.328 48.2V20.72L260.128 20.12V18.92H270.328V23.54C272.848 20.1 275.688 18.38 278.848 18.38C280.368 18.38 281.708 18.78 282.868 19.58C284.028 20.34 284.608 21.44 284.608 22.88C284.608 23.92 284.268 24.8 283.588 25.52C282.908 26.2 282.008 26.54 280.888 26.54C279.608 26.54 278.568 26.04 277.768 25.04C278.208 24.48 278.428 23.88 278.428 23.24C278.428 22.56 278.188 22.02 277.708 21.62C277.268 21.18 276.668 20.96 275.908 20.96C275.068 20.96 274.208 21.36 273.328 22.16C272.448 22.92 271.448 24.12 270.328 25.76V48.2L275.128 48.8V50H260.128V48.8ZM293.091 11.96C291.971 11.96 291.011 11.58 290.211 10.82C289.411 10.02 289.011 9.06 289.011 7.94C289.011 6.82 289.391 5.88 290.151 5.12C290.951 4.36 291.931 3.98 293.091 3.98C294.171 3.98 295.091 4.36 295.851 5.12C296.611 5.88 296.991 6.82 296.991 7.94C296.991 9.06 296.611 10.02 295.851 10.82C295.091 11.58 294.171 11.96 293.091 11.96ZM286.731 50V48.8L290.931 48.2V20.78L286.731 20.18V18.98H296.931V48.2L301.131 48.8V50H286.731ZM318.295 51.2L305.455 20.72L301.555 20.12V18.92H316.495V20.12L312.175 20.9L321.235 43.46L329.335 21.68L324.055 20.18V18.98H334.795V20.18L331.015 21.62L319.975 51.2H318.295ZM345.145 50.6C342.585 50.6 340.485 49.94 338.845 48.62C337.205 47.26 336.385 45.26 336.385 42.62C336.385 38.86 337.965 36.2 341.125 34.64C344.285 33.04 347.945 32.24 352.105 32.24H356.125V27.62C356.125 25.54 355.885 23.94 355.405 22.82C354.965 21.66 354.265 20.86 353.305 20.42C352.345 19.94 351.045 19.7 349.405 19.7C347.525 19.7 346.125 20.08 345.205 20.84C344.285 21.56 343.825 22.54 343.825 23.78C343.825 24.94 344.385 25.7 345.505 26.06C345.505 27.06 345.125 27.94 344.365 28.7C343.605 29.46 342.705 29.84 341.665 29.84C340.545 29.84 339.645 29.54 338.965 28.94C338.285 28.3 337.945 27.34 337.945 26.06C337.945 23.74 339.105 21.88 341.425 20.48C343.745 19.08 346.645 18.38 350.125 18.38C358.125 18.38 362.125 21.86 362.125 28.82V45.98C362.125 46.86 362.305 47.54 362.665 48.02C363.065 48.46 363.625 48.68 364.345 48.68C365.025 48.68 365.565 48.46 365.965 48.02C366.365 47.54 366.565 46.9 366.565 46.1H367.825C367.825 47.5 367.365 48.6 366.445 49.4C365.565 50.2 364.325 50.6 362.725 50.6C360.885 50.6 359.325 50.08 358.045 49.04C356.805 47.96 356.165 46.3 356.125 44.06C355.165 46.1 353.685 47.7 351.685 48.86C349.725 50.02 347.545 50.6 345.145 50.6ZM348.445 47.96C349.525 47.96 350.625 47.64 351.745 47C352.905 46.36 353.885 45.44 354.685 44.24C355.485 43 355.965 41.52 356.125 39.8V33.56H352.105C348.825 33.56 346.365 34.3 344.725 35.78C343.125 37.22 342.325 39.26 342.325 41.9C342.325 44.1 342.845 45.66 343.885 46.58C344.925 47.5 346.445 47.96 348.445 47.96ZM368.868 50V48.8L373.368 48.2V3.8L368.868 3.2V2H379.368V48.2L383.568 48.8V50H368.868ZM399.236 50.6C395.956 50.6 393.216 49.9 391.016 48.5C388.816 47.1 387.716 45.28 387.716 43.04C387.716 41.88 388.016 40.98 388.616 40.34C389.256 39.66 390.096 39.32 391.136 39.32C391.936 39.32 392.616 39.52 393.176 39.92C393.736 40.32 394.136 40.88 394.376 41.6C393.496 42.56 393.056 43.58 393.056 44.66C393.056 45.9 393.616 46.98 394.736 47.9C395.856 48.82 397.356 49.28 399.236 49.28C401.756 49.28 403.816 48.72 405.416 47.6C407.016 46.44 407.816 44.9 407.816 42.98C407.816 41.86 407.476 41.02 406.796 40.46C406.116 39.9 404.796 39.26 402.836 38.54L393.776 35.24C390.216 33.96 388.436 31.58 388.436 28.1C388.436 25.26 389.416 22.94 391.376 21.14C393.336 19.3 396.036 18.38 399.476 18.38C402.316 18.38 404.736 19.04 406.736 20.36C408.776 21.64 409.796 23.48 409.796 25.88C409.796 26.84 409.536 27.62 409.016 28.22C408.496 28.78 407.816 29.06 406.976 29.06C406.136 29.06 405.436 28.84 404.876 28.4C404.356 27.92 404.096 27.28 404.096 26.48C404.616 26.08 404.976 25.66 405.176 25.22C405.376 24.74 405.476 24.18 405.476 23.54C405.476 22.42 404.976 21.5 403.976 20.78C403.016 20.06 401.516 19.7 399.476 19.7C397.716 19.7 396.196 19.98 394.916 20.54C393.676 21.06 392.736 21.76 392.096 22.64C391.456 23.52 391.136 24.42 391.136 25.34C391.136 26.3 391.476 27.06 392.156 27.62C392.876 28.18 394.176 28.8 396.056 29.48L404.456 32.48C406.416 33.2 407.896 34.2 408.896 35.48C409.896 36.76 410.396 38.42 410.396 40.46C410.396 43.38 409.476 45.8 407.636 47.72C405.796 49.64 402.996 50.6 399.236 50.6Z" fill="#414141"/>
</svg>
