<svg width="477" height="66" viewBox="0 0 477 66" fill="none" xmlns="http://www.w3.org/2000/svg">
<path d="M176.882 46.8C174.402 46.8 171.962 46.0933 169.562 44.68L166.162 46.4H165.282V36.12H166.162L169.602 43.56C171.815 45.1333 174.348 45.92 177.202 45.92C179.548 45.92 181.482 45.3067 183.002 44.08C184.548 42.8267 185.322 41.08 185.322 38.84C185.322 37.2133 184.828 35.9333 183.842 35C182.855 34.04 181.255 33.28 179.042 32.72L172.402 31C170.082 30.3867 168.335 29.3467 167.162 27.88C165.988 26.3867 165.402 24.6267 165.402 22.6C165.402 20.76 165.762 19.1333 166.482 17.72C167.228 16.28 168.308 15.1733 169.722 14.4C171.135 13.6 172.815 13.2 174.762 13.2C177.188 13.2 179.362 13.6133 181.282 14.44L184.202 13.2H185.082V21.36H184.202L181.322 15.52C179.322 14.56 177.148 14.08 174.802 14.08C172.482 14.08 170.655 14.68 169.322 15.88C167.988 17.0533 167.322 18.6133 167.322 20.56C167.322 22 167.788 23.1333 168.722 23.96C169.682 24.7867 171.082 25.44 172.922 25.92L180.082 27.8C182.402 28.3867 184.122 29.4 185.242 30.84C186.388 32.2533 186.962 34.4133 186.962 37.32C186.962 40.28 186.042 42.6 184.202 44.28C182.388 45.96 179.948 46.8 176.882 46.8ZM194.602 20.64C193.856 20.64 193.216 20.3867 192.682 19.88C192.149 19.3467 191.882 18.7067 191.882 17.96C191.882 17.2133 192.136 16.5867 192.642 16.08C193.176 15.5733 193.829 15.32 194.602 15.32C195.322 15.32 195.936 15.5733 196.442 16.08C196.949 16.5867 197.202 17.2133 197.202 17.96C197.202 18.7067 196.949 19.3467 196.442 19.88C195.936 20.3867 195.322 20.64 194.602 20.64ZM190.362 46V45.2L193.162 44.8V26.52L190.362 26.12V25.32H197.162V44.8L199.962 45.2V46H190.362ZM222.405 23.4C222.405 24.44 222.018 25.3333 221.245 26.08C220.471 26.8267 219.245 27.3067 217.565 27.52C218.258 28.5333 218.605 29.92 218.605 31.68C218.605 33.76 217.858 35.4 216.365 36.6C214.898 37.8 213.031 38.4 210.765 38.4C209.831 38.4 208.978 38.32 208.205 38.16C206.498 38.2667 205.645 38.9333 205.645 40.16C205.645 40.8533 205.925 41.36 206.485 41.68C207.071 42 207.991 42.16 209.245 42.16H213.725C215.885 42.16 217.485 42.6 218.525 43.48C219.591 44.36 220.125 45.8667 220.125 48C220.125 49.4933 219.738 50.8667 218.965 52.12C218.218 53.3733 217.125 54.36 215.685 55.08C214.245 55.8267 212.525 56.2 210.525 56.2C207.511 56.2 205.285 55.7467 203.845 54.84C202.431 53.9333 201.725 52.7333 201.725 51.24C201.725 50.3333 202.071 49.5333 202.765 48.84C203.458 48.1467 204.405 47.8 205.605 47.8C205.845 47.8 206.338 47.8533 207.085 47.96C206.258 48.84 205.845 49.88 205.845 51.08C205.845 52.2267 206.245 53.2267 207.045 54.08C207.845 54.9333 209.151 55.36 210.965 55.36C212.538 55.36 213.938 55.0533 215.165 54.44C216.418 53.8533 217.378 53.08 218.045 52.12C218.711 51.16 219.045 50.1733 219.045 49.16C219.045 48.04 218.685 47.2267 217.965 46.72C217.245 46.24 215.965 46 214.125 46H209.245C207.378 46 205.965 45.64 205.005 44.92C204.071 44.1733 203.605 43.08 203.605 41.64C203.605 40.68 203.871 39.84 204.405 39.12C204.965 38.3733 205.671 37.8933 206.525 37.68C204.205 36.6933 203.045 34.6933 203.045 31.68C203.045 29.5733 203.778 27.92 205.245 26.72C206.711 25.52 208.551 24.92 210.765 24.92C213.565 24.92 215.591 25.5067 216.845 26.68C217.591 26.5467 218.151 26.3067 218.525 25.96C218.898 25.5867 219.085 25.1733 219.085 24.72C219.085 24.2933 218.965 23.9733 218.725 23.76C218.485 23.52 218.205 23.4 217.885 23.4C217.885 22.8133 218.098 22.3067 218.525 21.88C218.978 21.4267 219.511 21.2 220.125 21.2C220.791 21.2 221.338 21.4 221.765 21.8C222.191 22.2 222.405 22.7333 222.405 23.4ZM214.845 30.68C214.845 29.0533 214.498 27.8 213.805 26.92C213.138 26.04 212.125 25.6 210.765 25.6C208.125 25.6 206.805 27.2933 206.805 30.68V32.64C206.805 34.2133 207.125 35.4533 207.765 36.36C208.431 37.2667 209.431 37.72 210.765 37.72C212.125 37.72 213.138 37.2667 213.805 36.36C214.498 35.4533 214.845 34.2133 214.845 32.64V30.68ZM223.291 45.2L226.091 44.8V26.48L223.291 26.08V25.28H230.091V29.6C231.078 28.16 232.238 27.0267 233.571 26.2C234.904 25.3467 236.344 24.92 237.891 24.92C239.811 24.92 241.318 25.4 242.411 26.36C243.531 27.32 244.091 28.7467 244.091 30.64V44.8L246.891 45.2V46H237.691V45.2L240.091 44.8V30.72C240.091 29.3333 239.811 28.2667 239.251 27.52C238.691 26.7467 237.824 26.36 236.651 26.36C235.424 26.36 234.238 26.8133 233.091 27.72C231.971 28.6 230.971 29.6933 230.091 31V44.8L232.491 45.2V46H223.291V45.2ZM273.252 46.8C269.332 46.8 266.465 45.9333 264.652 44.2C262.839 42.44 261.932 40.12 261.932 37.24V15.44L258.252 14.88V14H270.012V14.88L266.332 15.44V37.24C266.332 39.8533 267.065 41.8667 268.532 43.28C269.999 44.6667 272.225 45.36 275.212 45.36C280.865 45.36 283.692 42.6533 283.692 37.24V16.44L279.972 14.88V14H288.492V14.88L284.652 16.44V37.24C284.652 40.44 283.759 42.84 281.972 44.44C280.185 46.0133 277.279 46.8 273.252 46.8ZM289.574 56.52L292.374 56.12V26.52L289.574 26.12V25.32H296.374V29.52C297.041 28.08 297.934 26.96 299.054 26.16C300.201 25.3333 301.561 24.92 303.134 24.92C305.028 24.92 306.694 25.3733 308.134 26.28C309.574 27.16 310.694 28.4133 311.494 30.04C312.294 31.64 312.694 33.52 312.694 35.68C312.694 37.84 312.294 39.7333 311.494 41.36C310.694 42.96 309.574 44.2 308.134 45.08C306.694 45.96 305.028 46.4 303.134 46.4C301.561 46.4 300.201 46 299.054 45.2C297.934 44.3733 297.041 43.2533 296.374 41.84V56.12L300.134 56.52V57.32H289.574V56.52ZM302.734 45.4C306.441 45.4 308.294 42.8267 308.294 37.68V33.68C308.294 28.5067 306.441 25.92 302.734 25.92C301.561 25.92 300.494 26.2667 299.534 26.96C298.574 27.6267 297.814 28.5333 297.254 29.68C296.694 30.8267 296.401 32.0667 296.374 33.4V37.68C296.374 39.04 296.641 40.32 297.174 41.52C297.734 42.6933 298.494 43.64 299.454 44.36C300.441 45.0533 301.534 45.4 302.734 45.4Z" fill="#414141"/>
<rect x="330" y="33" width="43" height="2" fill="#484848"/>
</svg>
